<?xml version="1.0" standalone="no"?>
<!DOCTYPE svg PUBLIC "-//W3C//DTD SVG 20010904//EN"
 "http://www.w3.org/TR/2001/REC-SVG-20010904/DTD/svg10.dtd">
<svg version="1.0" xmlns="http://www.w3.org/2000/svg"
 width="1060.000000pt" height="1060.000000pt" viewBox="0 0 1060.000000 1060.000000"
 preserveAspectRatio="xMidYMid meet">
<metadata>
Created by potrace 1.14, written by Peter Selinger 2001-2017
</metadata>
<g transform="translate(0.000000,1060.000000) scale(0.100000,-0.100000)"
fill="#000000" stroke="none">
<path d="M0 5300 l0 -5300 5300 0 5300 0 0 5300 0 5300 -5300 0 -5300 0 0
-5300z m2291 4353 c99 -47 157 -107 195 -201 1 -1 16 11 33 27 128 120 326 45
334 -127 l2 -49 46 41 c197 178 496 180 692 5 58 -51 126 -150 148 -212 9 -27
18 -37 29 -33 8 3 40 14 71 25 31 11 89 26 129 32 141 21 349 -21 465 -96 111
-71 98 -129 -42 -184 -137 -54 -477 -89 -734 -76 l-136 6 -6 -46 c-4 -26 -15
-60 -24 -76 -41 -69 -149 -77 -234 -18 l-27 19 -26 -40 c-48 -73 -132 -147
-210 -185 -132 -66 -258 -59 -368 21 l-47 34 -11 -38 c-26 -94 -101 -182 -195
-230 -201 -101 -525 -66 -666 71 l-36 35 -54 -26 c-74 -37 -154 -37 -224 0
-55 28 -109 77 -131 119 -13 26 -15 27 -111 26 -155 0 -256 38 -347 130 -115
116 -133 286 -49 454 66 131 187 221 346 253 90 19 128 20 199 5 61 -13 103
-32 135 -62 13 -11 24 -19 25 -16 2 2 10 17 18 34 26 50 77 78 133 72 44 -4
48 -3 53 22 43 204 222 326 465 318 82 -3 105 -8 160 -34z m6009 -149 c181
-54 330 -189 400 -362 l27 -67 54 -6 c141 -16 280 -81 380 -179 36 -36 73 -76
82 -89 l16 -24 63 19 c99 29 270 25 370 -8 164 -55 300 -168 377 -317 53 -102
71 -178 71 -297 0 -160 -41 -282 -137 -406 -75 -98 -178 -169 -312 -215 -65
-23 -93 -26 -191 -27 -98 0 -127 4 -198 28 l-82 27 -33 -24 c-74 -56 -95 -62
-222 -62 -95 0 -127 4 -154 18 -43 21 -41 22 -41 -9 0 -14 -14 -56 -31 -93
-63 -133 -227 -258 -380 -291 -79 -18 -239 -8 -314 18 -52 18 -61 19 -68 6
-89 -158 -327 -182 -450 -44 -35 38 -49 63 -71 124 -6 17 -8 16 -41 -8 -58
-45 -172 -94 -248 -107 -190 -32 -442 50 -565 185 -24 26 -45 46 -46 44 -1 -2
-18 -25 -37 -51 -60 -86 -175 -155 -306 -182 -86 -18 -223 -19 -289 -1 -158
42 -271 166 -317 346 -14 53 -16 55 -43 50 -94 -16 -194 6 -260 56 l-43 33
-43 -33 c-122 -93 -265 -138 -443 -139 -101 0 -129 3 -177 22 -120 47 -191
132 -227 271 l-19 75 -41 7 c-102 17 -176 76 -187 148 l-6 38 -77 7 c-253 23
-702 141 -785 206 -45 35 -34 53 62 101 274 140 510 171 748 97 l64 -20 42 45
c80 82 219 91 315 19 l33 -24 45 31 c65 45 180 97 254 116 47 12 94 15 170 12
104 -4 120 -8 249 -65 8 -4 12 7 12 36 0 47 31 101 71 125 16 9 50 16 81 16
l53 0 -3 79 c-9 195 77 359 230 437 65 33 186 43 258 22 l45 -14 32 66 c59
121 167 206 304 237 184 41 381 -48 477 -216 19 -34 32 -48 37 -41 4 7 33 24
64 38 45 21 72 26 136 26 101 0 161 -25 228 -96 48 -51 48 -51 106 -49 38 1
79 -5 119 -18 34 -12 63 -21 66 -21 2 0 7 11 10 24 12 47 109 177 170 228 72
60 177 113 267 133 78 18 220 13 299 -11z m-5047 -1983 c175 -46 346 -149 495
-300 l93 -93 45 12 c128 36 295 -33 345 -144 9 -20 17 -21 132 -21 119 0 124
-1 191 -34 38 -19 89 -53 112 -77 81 -80 134 -219 134 -349 l0 -70 75 3 c114
6 181 -34 213 -127 19 -55 15 -149 -9 -198 -37 -76 -145 -153 -305 -216 -175
-68 -345 -98 -559 -98 -210 1 -382 34 -509 98 -44 22 -51 23 -60 9 -52 -76
-74 -101 -129 -141 -126 -95 -309 -168 -506 -200 -291 -49 -610 42 -889 253
l-73 55 -112 -53 c-153 -72 -246 -100 -347 -107 -146 -9 -266 35 -361 134 -44
45 -119 152 -119 170 0 4 -39 8 -87 8 -148 1 -261 55 -307 146 -50 102 -24
205 67 266 76 51 152 63 270 41 14 -2 22 9 36 48 61 178 236 343 428 403 100
32 214 44 297 31 61 -9 92 -21 206 -78 3 -1 25 32 50 73 151 258 399 465 644
541 157 48 388 55 539 15z m4737 -711 c93 -31 159 -72 217 -133 50 -53 94
-126 106 -178 l7 -27 57 24 c76 31 143 31 211 -1 56 -26 157 -115 167 -146 8
-25 25 -24 25 1 0 31 46 115 86 160 83 92 233 123 336 71 64 -33 123 -93 156
-160 22 -46 27 -69 27 -133 l0 -77 25 7 c14 4 57 7 95 6 169 -2 307 -128 322
-294 6 -61 7 -63 79 -136 197 -199 227 -488 68 -664 -59 -65 -142 -102 -241
-108 -75 -4 -87 -2 -146 25 l-64 30 -11 -43 c-26 -97 -121 -160 -230 -152
l-59 4 -6 -65 c-12 -133 -78 -266 -183 -366 -209 -202 -547 -194 -769 16 l-72
69 -55 -25 c-208 -95 -480 -23 -625 167 l-20 27 -47 -44 c-90 -87 -207 -128
-361 -128 -142 1 -296 40 -517 132 -175 73 -278 172 -278 266 0 30 -4 31 -40
5 -187 -133 -577 -115 -897 41 -96 47 -202 139 -232 202 -36 74 -24 220 24
317 56 111 181 208 322 250 59 18 92 21 177 18 l103 -3 11 56 c35 191 181 382
356 468 137 67 306 82 460 42 79 -21 192 -76 232 -112 29 -27 32 -24 21 29
-19 92 41 220 124 262 88 45 200 33 280 -31 l37 -29 6 34 c29 151 192 299 379
342 88 20 254 12 337 -16z m-5100 -1568 c214 -75 381 -251 422 -445 11 -52 14
-57 33 -51 11 3 53 8 93 11 69 5 78 3 147 -31 74 -36 114 -75 149 -143 9 -18
16 -39 16 -48 0 -33 16 -12 27 36 27 111 117 249 218 331 71 58 218 132 293
147 76 16 198 14 267 -4 287 -75 505 -370 493 -669 -2 -47 -1 -85 2 -83 138
83 294 88 440 15 70 -35 149 -110 174 -167 l18 -39 72 38 c194 104 446 126
685 59 73 -20 163 -60 191 -84 12 -11 35 -9 135 16 223 55 349 73 495 72 263
-1 518 -69 528 -140 5 -31 -24 -46 -194 -102 -223 -74 -457 -114 -798 -136
-89 -6 -104 -10 -150 -40 -118 -75 -250 -129 -381 -156 -125 -25 -328 -9 -454
35 l-43 16 -44 -39 c-49 -43 -116 -66 -172 -59 l-37 5 4 -55 c4 -75 -11 -120
-60 -176 -85 -97 -218 -135 -348 -102 -35 9 -65 15 -66 14 -107 -176 -279
-270 -520 -285 -176 -10 -329 38 -462 147 l-62 50 -15 -27 c-64 -123 -241
-185 -378 -133 -31 11 -79 41 -106 65 l-49 44 -46 -59 c-139 -178 -374 -294
-622 -307 -222 -11 -390 40 -518 158 -111 102 -171 241 -150 349 8 37 7 50 -1
46 -81 -37 -199 -80 -253 -91 -90 -19 -263 -19 -338 0 -147 37 -294 140 -364
253 -6 11 -21 9 -72 -8 -53 -18 -81 -21 -159 -18 -81 3 -105 8 -163 35 -203
96 -315 345 -226 503 24 43 90 90 125 90 17 0 19 7 16 84 -7 154 33 262 133
362 106 107 256 164 432 164 52 0 115 -5 139 -11 l46 -12 43 50 c148 169 426
168 599 -1 l54 -52 7 59 c19 176 136 358 295 459 48 31 133 65 195 78 61 14
203 4 265 -18z m5659 -1873 c247 -40 457 -203 560 -435 l23 -51 35 18 c204
104 443 -42 443 -270 l0 -59 53 -12 c181 -42 320 -163 378 -331 32 -91 32
-252 0 -364 -45 -162 -108 -242 -235 -301 -165 -76 -359 -81 -457 -13 l-26 19
-5 -73 c-6 -87 -38 -165 -94 -226 -67 -75 -165 -111 -299 -110 -70 0 -104 7
-166 33 -13 6 -18 -1 -22 -31 -24 -146 -234 -351 -452 -443 -157 -65 -349 -86
-507 -56 -316 61 -581 252 -653 472 l-16 51 -82 -24 c-142 -42 -303 -22 -411
52 l-36 24 -66 -50 c-390 -295 -999 -253 -1152 79 -17 38 -25 73 -26 118 0 35
-2 64 -2 64 -1 0 -28 -16 -60 -35 -72 -43 -156 -70 -268 -86 -104 -15 -212 -1
-292 37 -31 14 -56 24 -57 23 -1 -2 -16 -33 -33 -69 -84 -174 -290 -304 -484
-305 -98 0 -144 17 -316 115 -76 44 -145 80 -152 80 -8 0 -27 -9 -43 -21 -16
-11 -68 -39 -116 -62 -84 -39 -93 -41 -183 -42 -83 0 -103 4 -152 27 -79 37
-132 82 -178 150 -21 32 -40 63 -42 70 -3 9 -21 5 -64 -14 -32 -14 -86 -32
-119 -38 -135 -28 -352 22 -517 118 l-58 33 -82 -12 c-126 -18 -451 -16 -588
5 -352 52 -615 108 -818 172 l-84 27 6 31 c11 53 58 119 101 141 35 18 54 19
155 15 63 -3 185 -4 270 -4 173 1 243 17 424 93 289 123 490 140 661 56 78
-38 85 -43 137 -102 l36 -41 27 42 c29 46 98 97 160 117 22 7 81 13 130 14
101 0 176 -20 225 -62 l30 -25 64 68 c73 79 161 136 259 166 57 17 87 20 181
16 104 -4 118 -7 190 -41 54 -25 96 -55 138 -97 l60 -61 44 41 c95 87 207 139
358 165 148 25 253 16 367 -33 l47 -20 4 59 c7 99 73 159 176 159 46 0 53 2
48 18 -48 158 -28 326 51 423 50 62 89 93 159 128 163 80 371 68 582 -34 52
-25 96 -45 98 -45 2 0 4 13 4 28 0 67 90 191 165 226 116 55 281 13 347 -89
13 -19 25 -35 28 -35 3 0 16 22 29 49 125 265 571 311 805 84 53 -51 94 -117
112 -182 l16 -53 18 29 c26 43 76 81 116 89 50 9 121 -2 162 -27 40 -23 42
-21 66 41 82 213 307 369 581 403 65 8 223 6 284 -4z"/>
</g>
</svg>
